<?xml version="1.0" encoding="UTF-8"?>
<svg width="109px" height="28px" viewBox="0 0 109 28" version="1.1" xmlns="http://www.w3.org/2000/svg" xmlns:xlink="http://www.w3.org/1999/xlink">
    <!-- Generator: Sketch 61.2 (89653) - https://sketch.com -->
    <title>Logo</title>
    <desc>Created with Sketch.</desc>
    <g id="Symbols" stroke="none" stroke-width="1" fill="none" fill-rule="evenodd">
        <g id="Nav" transform="translate(-15.000000, -11.000000)" fill="#FFFFFF" fill-rule="nonzero">
            <path d="M31.865561,38.3676098 C34.339122,38.3676098 36.3503415,35.7588293 37.5229268,31.9665366 C38.6955122,28.1749268 37.4,25.1113171 35.9317073,22.5257561 C32.5081951,16.5016585 33.3604878,11 33.3604878,11 C33.3604878,11 32.2404878,11.5941463 31.864878,11.5941463 C31.5165854,11.5941463 30.4696585,11 30.4696585,11 C30.4696585,11 31.2645854,16.5023415 28.0691707,22.5243902 C26.6964878,25.1099512 25.4877073,28.173561 26.582439,31.9658537 C27.6764878,35.7595122 29.5559024,38.3676098 31.865561,38.3676098 Z M25.3586341,26.8643902 C25.8762927,23.4169756 28.319122,20.5541463 29.2547317,17.897561 C30.204,15.2034146 29.9752195,13.1307317 29.9752195,13.1307317 L29.1878049,12.5270244 C29.1878049,12.5270244 28.4126829,18.9697561 23.7619512,22.4854634 C21.2173659,24.4079024 20.2107317,26.9845854 20.1786342,29.4786341 C20.0830244,36.9635122 28.5287805,40.1732683 26.7702439,34.9884878 C25.9958049,32.7143415 24.7330732,31.0316098 25.3586341,26.8643902 L25.3586341,26.8643902 Z M20.5795122,22.3126829 C23.5611707,20.9017561 25.8339512,19.2258537 25.8339512,19.2258537 C25.8339512,19.2258537 24.6067317,20.9741463 24.1880976,21.295122 C22.4145366,22.657561 20.9482927,23.6320976 20.0058537,25.7512195 C19.3570732,27.2160976 19.1405854,28.8721951 19.4274146,30.4429268 C19.946439,33.2750244 20.786439,33.475122 20.2380488,34.5520976 C18.4521951,38.0541463 13.329561,29.4137561 16.9436098,25.0402927 C18.1674146,23.5610732 19.2969756,22.9177561 20.5801951,22.3106341 L20.5795122,22.3126829 Z M38.6757073,26.8780488 C38.1587317,23.4313171 35.7152195,20.5698537 34.7796098,17.9112195 C33.8303415,15.2177561 34.059122,13.1443902 34.059122,13.1443902 L34.8472195,12.5434146 C34.8472195,12.5434146 35.6216585,18.9854634 40.2730732,22.5004878 C42.8176585,24.4236098 43.8242927,27.0009756 43.8563902,29.4936585 C43.9533659,36.9805854 35.5062439,40.1896585 37.2661463,35.004878 C38.0378537,32.7273171 39.3012683,31.0452683 38.6757073,26.8780488 L38.6757073,26.8780488 Z M43.4541463,22.3270244 C40.4731707,20.9160976 38.2003902,19.2388293 38.2003902,19.2388293 C38.2003902,19.2388293 39.4276098,20.987122 39.8462439,21.3080976 C41.6218537,22.6719024 43.0887805,23.647122 44.0278049,25.7676098 C44.6779512,27.2331707 44.8937561,28.8885854 44.6062439,30.4593171 C44.0892683,33.2914146 43.2472195,33.492878 43.7956098,34.567122 C45.5807805,38.0705366 50.7040976,29.4294634 47.0886829,25.0573659 C45.8662439,23.5774634 44.7373659,22.9334634 43.4541463,22.3256585 L43.4541463,22.3270244 Z M57.7218537,21.8585366 L63.7999024,21.8585366 L63.7999024,33.82 L65.5741463,33.82 L65.1937561,35.6297561 L60.4733659,35.6297561 L60.4733659,23.5487805 L57.7225366,23.5487805 L57.7225366,21.8585366 L57.7218537,21.8585366 Z M63.7999024,15.0429268 L63.7896585,19.5420488 L60.4733659,19.5420488 L60.4733659,15.0429268 L63.8005854,15.0429268 L63.7999024,15.0429268 Z M65.240878,21.8571707 L69.6478049,21.8571707 L69.6478049,14.9985366 L72.9668293,14.9985366 L72.9668293,21.8571707 L77.1927805,21.8571707 L76.8130732,23.5453659 L72.9668293,23.5453659 L72.9668293,35.6522927 L69.6478049,35.6522927 L69.6478049,23.5453659 L65.241561,23.5453659 L65.241561,21.8571707 L65.240878,21.8571707 Z M79.5318049,16.7297561 L83.2100488,16.7297561 L83.2100488,15.022439 L86.5563902,15.022439 L86.5563902,16.7297561 L93.576878,16.7297561 L93.576878,15.022439 L96.9512195,15.022439 L96.9512195,16.7297561 L100.140488,16.7297561 L99.7614634,18.4186341 L96.9512195,18.4186341 L96.9512195,20.1068293 L93.577561,20.1068293 L93.577561,18.4186341 L86.5570732,18.4186341 L86.5331707,20.1068293 L83.1868293,20.1068293 L83.2107317,18.4186341 L79.5324878,18.4186341 L79.5324878,16.7297561 L79.5318049,16.7297561 Z M79.9108293,25.1953171 L89.5100488,25.1953171 L89.1303415,26.8561951 L86.5557073,26.8561951 L86.5557073,33.5393171 C86.5557073,34.6716098 85.5429268,35.6085854 84.4113171,35.6085854 L82.1658537,35.6085854 L82.1658537,34.062439 L82.2341463,34.062439 C82.5380488,34.062439 83.217561,33.9306341 83.217561,33.6479024 L83.217561,26.8561951 L79.9121951,26.8561951 L79.9121951,25.1953171 L79.9108293,25.1953171 Z M80.4885854,21.7410732 L88.5512195,21.7410732 L88.1721951,23.4811707 L80.4892683,23.4811707 L80.4892683,21.7410732 L80.4885854,21.7410732 Z M90.5433171,25.1953171 L100.141171,25.1953171 L99.7621463,26.8561951 L96.9519024,26.8766829 L96.9519024,33.5570732 C96.9519024,34.6907317 96.1986341,35.6079024 95.0451707,35.6079024 L92.8010732,35.6079024 L92.8010732,34.0610732 L92.887122,34.0610732 C93.1917073,34.0610732 93.6246829,33.9299512 93.6246829,33.6472195 L93.6246829,26.8555122 L90.5446829,26.8555122 L90.5446829,25.196 L90.5433171,25.1953171 Z M91.1422439,21.7410732 L99.1830244,21.7410732 L98.804,23.4811707 L91.141561,23.4811707 L91.141561,21.7410732 L91.1422439,21.7410732 Z M105.175024,35.5880976 L105.175024,30.0154146 L121.897854,30.0154146 L121.897854,33.5174634 C121.897854,34.6497561 120.982732,35.5867317 119.82722,35.5867317 L105.174342,35.5867317 L105.174342,35.5880976 L105.175024,35.5880976 Z M120.258146,18.4193171 L106.853659,18.4193171 L106.853659,20.1061463 L103.52439,20.1061463 L103.52439,16.7318049 L111.681951,16.7318049 L111.681951,15.022439 L115.007805,15.022439 L115.007805,16.7297561 L123.585366,16.7297561 L123.574439,20.1054634 L120.258146,20.1054634 L120.258146,18.4172683 L120.258146,18.4193171 Z M108.621073,19.9340488 L111.967415,19.9340488 L111.11239,20.7774634 L121.923122,20.7856585 L121.923122,22.5202927 L116.049951,25.3660488 L119.825171,27.0037073 L123.585366,26.9804878 L122.825268,29.0456585 L118.684,29.0456585 L113.725951,26.8022439 L109.053366,29.0763902 L103.526439,29.0763902 L103.526439,27.1710244 L108.492683,27.1710244 L111.254439,25.746439 L107.685463,24.1565854 L106.842732,24.9665366 L103.525756,24.9870244 L108.62039,19.9333659 L108.621073,19.9340488 Z M108.511805,33.9313171 L117.782537,33.9313171 C118.240098,33.9313171 118.608878,33.5604878 118.608878,33.1049756 L118.608878,31.6721951 L108.513171,31.6721951 L108.513171,33.9313171 L108.511805,33.9313171 Z M109.443317,22.4130732 L113.32439,24.1559024 L117.253951,22.4130732 L109.441951,22.4130732 L109.443317,22.4130732 Z M80.0829268,28.537561 L81.7287805,28.537561 L81.7287805,33.464878 L80.0829268,33.8234146 L80.0829268,28.537561 Z M87.7706341,28.508878 L89.4137561,28.508878 L89.4137561,33.7947317 L87.7706341,33.464878 L87.7706341,28.508878 Z M90.777561,28.508878 L92.4220488,28.508878 L92.4220488,33.464878 L90.7707317,33.7947317 L90.777561,28.508878 Z M97.9947317,28.5081951 L99.6392195,28.5081951 L99.6392195,33.7940488 L97.9947317,33.464878 L97.9947317,28.5081951 Z" id="Logo"></path>
        </g>
    </g>
</svg>